<svg viewBox="0 0 200 200" xml:space="preserve" xmlns="http://www.w3.org/2000/svg"><g fill="#1E1E1E" class="fill-1d1d1b"><path d="m193.042 177.378-8.459-28.834-8.231-28.063-.007-.018-11.139-37.971-1.766-6.023-.003-.008-2.714-9.25a3.484 3.484 0 0 0-1.745-2.114 8.397 8.397 0 0 0-.991-1.222c-5.585-5.584-17.202-1.903-30.065 6.434-5.705-6.308-8.828-14.394-8.828-22.961 0-9.155 3.565-17.762 10.039-24.235a3.5 3.5 0 1 0-4.95-4.95c-15.373 15.374-16.049 39.95-2.05 56.148-6.592 4.831-13.32 10.66-19.578 16.919l-.01.01c-12.45-7.558-26.8-11.438-41.784-11.087a3.5 3.5 0 0 0-3.418 3.58 3.489 3.489 0 0 0 3.58 3.418c13.077-.31 25.631 2.931 36.634 9.272-4.636 5.002-8.824 10.068-12.392 14.992-14.719-5.562-31.998-2.44-43.828 9.39a3.5 3.5 0 1 0 4.95 4.95c6.474-6.474 15.081-10.039 24.236-10.039 3.648 0 7.205.575 10.579 1.666a92.353 92.353 0 0 0-3.284 5.561c-7.649 14.119-5.646 20.691-2.619 23.719.383.382.8.711 1.237 1.009a3.483 3.483 0 0 0 2.103 1.722l9.246 2.717.002.001 19.174 5.628.004.001 40.54 11.895 2.734.803.008.002 38.452 11.283a3.496 3.496 0 0 0 3.46-.883 3.507 3.507 0 0 0 .883-3.462zm-15.07-26.501c-7.239-.158-13.08-6.096-13.08-13.373a13.35 13.35 0 0 1 5.898-11.108l6.739 22.972.443 1.509zm-16.026-54.623c-4.908 9.234-13.504 20.301-23.784 30.588-10.267 10.268-21.331 18.864-30.579 23.783l-13.888-4.077c11.191-4.785 24.928-15.23 36.938-27.24 12.013-12.013 22.456-25.752 27.24-36.944l1.367 4.658 2.706 9.232zm-77.974 30.023a88.161 88.161 0 0 1 3.607-6.022 34.405 34.405 0 0 1 7.179 5.5c.684.683 1.58 1.025 2.475 1.025s1.792-.342 2.475-1.025a3.5 3.5 0 0 0 0-4.95 41.191 41.191 0 0 0-8.12-6.311c3.45-4.665 7.477-9.466 11.939-14.213a71.607 71.607 0 0 1 8.788 7.464c.684.683 1.58 1.025 2.475 1.025s1.792-.342 2.475-1.025a3.5 3.5 0 0 0 0-4.95 78.915 78.915 0 0 0-8.787-7.579c19.66-19.384 35.901-27.086 42.194-27.086 1.108 0 1.909.239 2.364.695 3.085 3.085-3.772 21.954-27.353 45.534-23.578 23.58-42.447 30.442-45.534 27.353-1.019-1.018-1.53-5.554 3.823-15.435zm50.636 31.19 4.776.188a3.54 3.54 0 0 0 2.941-1.403l2.864-3.834 1.299 4.599a3.5 3.5 0 0 0 2.242 2.362l4.538 1.542-3.231 2.162-14.462-4.247-.967-1.369zm24.178 8.183 4.264-2.854a3.5 3.5 0 0 0-.82-6.223l-9.506-3.231-2.728-9.654a3.5 3.5 0 0 0-6.172-1.143l-6.006 8.042-10.022-.393a3.508 3.508 0 0 0-3.213 1.827 3.499 3.499 0 0 0 .193 3.65l-7.982-2.342c8.421-5.349 17.67-12.888 26.319-21.538 8.655-8.662 16.194-17.913 21.537-26.325l4.109 14.008a20.32 20.32 0 0 0-10.867 18.03c0 11.235 9.141 20.376 20.376 20.376.579 0 1.157-.034 1.734-.082l4.519 15.403-25.735-7.551zM31.292 86.716C22.549 90.56 14.66 95.97 7.843 102.797a3.5 3.5 0 0 0 4.953 4.946c6.199-6.208 13.37-11.127 21.313-14.619a3.5 3.5 0 1 0-2.817-6.408z"></path><path d="m58.256 50.128 8.999 4.441 1.444 9.932a3.498 3.498 0 0 0 5.97 1.939l7.005-7.187 9.892 1.697a3.502 3.502 0 0 0 3.69-5.079l-4.67-8.883 4.67-8.883a3.498 3.498 0 0 0-.267-3.686 3.505 3.505 0 0 0-3.423-1.393l-9.892 1.696-7.005-7.186a3.5 3.5 0 0 0-5.97 1.939l-1.444 9.932-8.999 4.441a3.5 3.5 0 0 0 0 6.28zm13.747-5.256a3.501 3.501 0 0 0 1.915-2.635l.688-4.735 3.339 3.426a3.5 3.5 0 0 0 3.098 1.007l4.715-.809-2.227 4.234a3.502 3.502 0 0 0 0 3.258l2.227 4.234-4.715-.809a3.501 3.501 0 0 0-3.098 1.007l-3.339 3.426-.688-4.734a3.499 3.499 0 0 0-1.915-2.635l-4.29-2.117 4.29-2.118zM53.12 135.575c-5.616 0-10.185 4.569-10.185 10.185s4.569 10.185 10.185 10.185 10.185-4.569 10.185-10.185-4.569-10.185-10.185-10.185zm0 13.37c-1.756 0-3.185-1.429-3.185-3.185s1.429-3.185 3.185-3.185 3.185 1.429 3.185 3.185-1.429 3.185-3.185 3.185zM31.481 67.498c7.249 0 13.146-5.897 13.146-13.146S38.73 41.204 31.481 41.204s-13.146 5.898-13.146 13.147 5.897 13.147 13.146 13.147zm0-19.294a6.153 6.153 0 0 1 6.146 6.147c0 3.389-2.757 6.146-6.146 6.146s-6.146-2.757-6.146-6.146a6.153 6.153 0 0 1 6.146-6.147z"></path></g></svg>