<svg xmlns="http://www.w3.org/2000/svg" version="1.1" xmlns:xlink="http://www.w3.org/1999/xlink" xmlns:svgjs="http://svgjs.dev/svgjs" viewBox="0 0 800 800"><g fill="#e60013" transform="matrix(1.2,0,0,1.2,-81,-80.29999999999995)"><circle r="1.5" cx="405" cy="400" opacity="0.10"></circle><circle r="1.5" cx="404" cy="404" opacity="0.10"></circle><circle r="1.5" cx="399" cy="407" opacity="0.10"></circle><circle r="1.5" cx="394" cy="404" opacity="0.11"></circle><circle r="1.5" cx="392" cy="398" opacity="0.11"></circle><circle r="1.5" cx="396" cy="391" opacity="0.11"></circle><circle r="1.5" cx="404" cy="391" opacity="0.11"></circle><circle r="1.5" cx="411" cy="397" opacity="0.12"></circle><circle r="1.5" cx="410" cy="407" opacity="0.12"></circle><circle r="1.5" cx="401" cy="413" opacity="0.12"></circle><circle r="1.5" cx="391" cy="410" opacity="0.12"></circle><circle r="1.5" cx="386" cy="399" opacity="0.13"></circle><circle r="1.5" cx="390" cy="388" opacity="0.13"></circle><circle r="1.5" cx="403" cy="384" opacity="0.13"></circle><circle r="1.5" cx="415" cy="391" opacity="0.13"></circle><circle r="1.5" cx="417" cy="406" opacity="0.14"></circle><circle r="1.5" cx="407" cy="417" opacity="0.14"></circle><circle r="2" cx="391" cy="417" opacity="0.14"></circle><circle r="2" cx="380" cy="405" opacity="0.14"></circle><circle r="2" cx="383" cy="387" opacity="0.15"></circle><circle r="2" cx="398" cy="378" opacity="0.15"></circle><circle r="2" cx="416" cy="384" opacity="0.15"></circle><circle r="2" cx="424" cy="402" opacity="0.15"></circle><circle r="2" cx="415" cy="420" opacity="0.16"></circle><circle r="2" cx="394" cy="425" opacity="0.16"></circle><circle r="2" cx="377" cy="412" opacity="0.16"></circle><circle r="2" cx="374" cy="390" opacity="0.16"></circle><circle r="2" cx="391" cy="373" opacity="0.17"></circle><circle r="2" cx="414" cy="375" opacity="0.17"></circle><circle r="2" cx="429" cy="394" opacity="0.17"></circle><circle r="2" cx="424" cy="419" opacity="0.17"></circle><circle r="2" cx="401" cy="432" opacity="0.18"></circle><circle r="2" cx="376" cy="422" opacity="0.18"></circle><circle r="2" cx="367" cy="396" opacity="0.18"></circle><circle r="2" cx="381" cy="372" opacity="0.18"></circle><circle r="2" cx="409" cy="366" opacity="0.19"></circle><circle r="2" cx="432" cy="384" opacity="0.19"></circle><circle r="2" cx="434" cy="414" opacity="0.19"></circle><circle r="2" cx="411" cy="436" opacity="0.19"></circle><circle r="2" cx="380" cy="433" opacity="0.20"></circle><circle r="2" cx="361" cy="406" opacity="0.20"></circle><circle r="2" cx="369" cy="374" opacity="0.20"></circle><circle r="2" cx="400" cy="359" opacity="0.20"></circle><circle r="2" cx="432" cy="372" opacity="0.21"></circle><circle r="2" cx="442" cy="406" opacity="0.21"></circle><circle r="2" cx="424" cy="437" opacity="0.21"></circle><circle r="2" cx="387" cy="443" opacity="0.21"></circle><circle r="2" cx="359" cy="419" opacity="0.22"></circle><circle r="2" cx="358" cy="380" opacity="0.22"></circle><circle r="2" cx="387" cy="355" opacity="0.22"></circle><circle r="2" cx="427" cy="360" opacity="0.22"></circle><circle r="2" cx="448" cy="394" opacity="0.23"></circle><circle r="2" cx="437" cy="433" opacity="0.23"></circle><circle r="2" cx="399" cy="451" opacity="0.23"></circle><circle r="2" cx="360" cy="433" opacity="0.23"></circle><circle r="2" cx="349" cy="391" opacity="0.24"></circle><circle r="2" cx="373" cy="354" opacity="0.24"></circle><circle r="2.5" cx="417" cy="349" opacity="0.24"></circle><circle r="2.5" cx="451" cy="379" opacity="0.24"></circle><circle r="2.5" cx="450" cy="425" opacity="0.25"></circle><circle r="2.5" cx="413" cy="455" opacity="0.25"></circle><circle r="2.5" cx="366" cy="447" opacity="0.25"></circle><circle r="2.5" cx="342" cy="405" opacity="0.25"></circle><circle r="2.5" cx="358" cy="359" opacity="0.26"></circle><circle r="2.5" cx="404" cy="340" opacity="0.26"></circle><circle r="2.5" cx="449" cy="363" opacity="0.26"></circle><circle r="2.5" cx="460" cy="413" opacity="0.26"></circle><circle r="2.5" cx="430" cy="455" opacity="0.27"></circle><circle r="2.5" cx="378" cy="459" opacity="0.27"></circle><circle r="2.5" cx="340" cy="422" opacity="0.27"></circle><circle r="2.5" cx="343" cy="368" opacity="0.27"></circle><circle r="2.5" cx="387" cy="335" opacity="0.28"></circle><circle r="2.5" cx="441" cy="347" opacity="0.28"></circle><circle r="2.5" cx="468" cy="396" opacity="0.28"></circle><circle r="2.5" cx="447" cy="450" opacity="0.28"></circle><circle r="2.5" cx="393" cy="469" opacity="0.29"></circle><circle r="2.5" cx="342" cy="441" opacity="0.29"></circle><circle r="2.5" cx="331" cy="383" opacity="0.29"></circle><circle r="2.5" cx="368" cy="336" opacity="0.29"></circle><circle r="2.5" cx="428" cy="333" opacity="0.30"></circle><circle r="2.5" cx="470" cy="377" opacity="0.30"></circle><circle r="2.5" cx="464" cy="439" opacity="0.30"></circle><circle r="2.5" cx="412" cy="474" opacity="0.30"></circle><circle r="2.5" cx="351" cy="459" opacity="0.31"></circle><circle r="2.5" cx="323" cy="401" opacity="0.31"></circle><circle r="2.5" cx="348" cy="342" opacity="0.31"></circle><circle r="2.5" cx="410" cy="322" opacity="0.31"></circle><circle r="2.5" cx="467" cy="356" opacity="0.32"></circle><circle r="2.5" cx="477" cy="422" opacity="0.32"></circle><circle r="2.5" cx="434" cy="474" opacity="0.32"></circle><circle r="2.5" cx="366" cy="475" opacity="0.32"></circle><circle r="2.5" cx="320" cy="423" opacity="0.33"></circle><circle r="2.5" cx="330" cy="354" opacity="0.33"></circle><circle r="2.5" cx="389" cy="316" opacity="0.33"></circle><circle r="2.5" cx="457" cy="336" opacity="0.33"></circle><circle r="2.5" cx="487" cy="402" opacity="0.34"></circle><circle r="2.5" cx="456" cy="467" opacity="0.34"></circle><circle r="2.5" cx="385" cy="487" opacity="0.34"></circle><circle r="3" cx="324" cy="446" opacity="0.34"></circle><circle r="3" cx="314" cy="372" opacity="0.35"></circle><circle r="3" cx="365" cy="316" opacity="0.35"></circle><circle r="3" cx="441" cy="318" opacity="0.35"></circle><circle r="3" cx="490" cy="378" opacity="0.35"></circle><circle r="3" cx="476" cy="454" opacity="0.36"></circle><circle r="3" cx="409" cy="494" opacity="0.36"></circle><circle r="3" cx="334" cy="469" opacity="0.36"></circle><circle r="3" cx="304" cy="395" opacity="0.36"></circle><circle r="3" cx="341" cy="323" opacity="0.37"></circle><circle r="3" cx="420" cy="304" opacity="0.37"></circle><circle r="3" cx="486" cy="352" opacity="0.37"></circle><circle r="3" cx="493" cy="434" opacity="0.37"></circle><circle r="3" cx="435" cy="494" opacity="0.38"></circle><circle r="3" cx="351" cy="489" opacity="0.38"></circle><circle r="3" cx="300" cy="421" opacity="0.38"></circle><circle r="3" cx="318" cy="338" opacity="0.38"></circle><circle r="3" cx="394" cy="296" opacity="0.39"></circle><circle r="3" cx="475" cy="327" opacity="0.39"></circle><circle r="3" cx="505" cy="409" opacity="0.39"></circle><circle r="3" cx="462" cy="487" opacity="0.39"></circle><circle r="3" cx="375" cy="504" opacity="0.40"></circle><circle r="3" cx="304" cy="449" opacity="0.40"></circle><circle r="3" cx="299" cy="359" opacity="0.40"></circle><circle r="3" cx="365" cy="296" opacity="0.40"></circle><circle r="3" cx="457" cy="305" opacity="0.41"></circle><circle r="3" cx="510" cy="381" opacity="0.41"></circle><circle r="3" cx="487" cy="471" opacity="0.41"></circle><circle r="3" cx="403" cy="513" opacity="0.41"></circle><circle r="3" cx="315" cy="477" opacity="0.42"></circle><circle r="3" cx="286" cy="386" opacity="0.42"></circle><circle r="3" cx="336" cy="303" opacity="0.42"></circle><circle r="3" cx="432" cy="288" opacity="0.42"></circle><circle r="3" cx="507" cy="350" opacity="0.43"></circle><circle r="3" cx="508" cy="449" opacity="0.43"></circle><circle r="3" cx="434" cy="514" opacity="0.43"></circle><circle r="3" cx="335" cy="501" opacity="0.43"></circle><circle r="3" cx="280" cy="417" opacity="0.44"></circle><circle r="3" cx="308" cy="319" opacity="0.44"></circle><circle r="3" cx="401" cy="277" opacity="0.44"></circle><circle r="3" cx="495" cy="320" opacity="0.44"></circle><circle r="3.5" cx="523" cy="420" opacity="0.45"></circle><circle r="3.5" cx="466" cy="507" opacity="0.45"></circle><circle r="3.5" cx="362" cy="520" opacity="0.45"></circle><circle r="3.5" cx="283" cy="450" opacity="0.45"></circle><circle r="3.5" cx="285" cy="343" opacity="0.46"></circle><circle r="3.5" cx="368" cy="275" opacity="0.46"></circle><circle r="3.5" cx="474" cy="293" opacity="0.46"></circle><circle r="3.5" cx="530" cy="386" opacity="0.46"></circle><circle r="3.5" cx="496" cy="490" opacity="0.47"></circle><circle r="3.5" cx="394" cy="532" opacity="0.47"></circle><circle r="3.5" cx="295" cy="482" opacity="0.47"></circle><circle r="3.5" cx="269" cy="374" opacity="0.47"></circle><circle r="3.5" cx="333" cy="283" opacity="0.48"></circle><circle r="3.5" cx="446" cy="272" opacity="0.48"></circle><circle r="3.5" cx="527" cy="351" opacity="0.48"></circle><circle r="3.5" cx="521" cy="465" opacity="0.48"></circle><circle r="3.5" cx="430" cy="535" opacity="0.49"></circle><circle r="3.5" cx="317" cy="511" opacity="0.49"></circle><circle r="3.5" cx="260" cy="410" opacity="0.49"></circle><circle r="3.5" cx="301" cy="300" opacity="0.49"></circle><circle r="3.5" cx="411" cy="259" opacity="0.50"></circle><circle r="3.5" cx="515" cy="316" opacity="0.50"></circle><circle r="3.5" cx="540" cy="433" opacity="0.50"></circle><circle r="3.5" cx="467" cy="528" opacity="0.50"></circle><circle r="3.5" cx="346" cy="535" opacity="0.51"></circle><circle r="3.5" cx="262" cy="448" opacity="0.51"></circle><circle r="3.5" cx="273" cy="326" opacity="0.51"></circle><circle r="3.5" cx="373" cy="255" opacity="0.51"></circle><circle r="3.5" cx="493" cy="284" opacity="0.52"></circle><circle r="3.5" cx="549" cy="395" opacity="0.52"></circle><circle r="3.5" cx="502" cy="511" opacity="0.52"></circle><circle r="3.5" cx="383" cy="550" opacity="0.52"></circle><circle r="3.5" cx="274" cy="485" opacity="0.53"></circle><circle r="3.5" cx="252" cy="360" opacity="0.53"></circle><circle r="3.5" cx="334" cy="261" opacity="0.53"></circle><circle r="3.5" cx="462" cy="258" opacity="0.53"></circle><circle r="3.5" cx="549" cy="355" opacity="0.54"></circle><circle r="3.5" cx="532" cy="484" opacity="0.54"></circle><circle r="3.5" cx="423" cy="556" opacity="0.54"></circle><circle r="3.5" cx="297" cy="520" opacity="0.54"></circle><circle r="4" cx="241" cy="400" opacity="0.55"></circle><circle r="4" cx="296" cy="279" opacity="0.55"></circle><circle r="4" cx="424" cy="241" opacity="0.55"></circle><circle r="4" cx="537" cy="314" opacity="0.55"></circle><circle r="4" cx="555" cy="448" opacity="0.56"></circle><circle r="4" cx="465" cy="550" opacity="0.56"></circle><circle r="4" cx="329" cy="548" opacity="0.56"></circle><circle r="4" cx="241" cy="443" opacity="0.56"></circle><circle r="4" cx="263" cy="307" opacity="0.57"></circle><circle r="4" cx="381" cy="234" opacity="0.57"></circle><circle r="4" cx="514" cy="277" opacity="0.57"></circle><circle r="4" cx="568" cy="406" opacity="0.57"></circle><circle r="4" cx="506" cy="532" opacity="0.58"></circle><circle r="4" cx="368" cy="567" opacity="0.58"></circle><circle r="4" cx="252" cy="486" opacity="0.58"></circle><circle r="4" cx="238" cy="343" opacity="0.58"></circle><circle r="4" cx="337" cy="239" opacity="0.59"></circle><circle r="4" cx="481" cy="246" opacity="0.59"></circle><circle r="4" cx="570" cy="361" opacity="0.59"></circle><circle r="4" cx="541" cy="504" opacity="0.59"></circle><circle r="4" cx="414" cy="576" opacity="0.60"></circle><circle r="4" cx="275" cy="525" opacity="0.60"></circle><circle r="4" cx="223" cy="387" opacity="0.60"></circle><circle r="4" cx="293" cy="256" opacity="0.60"></circle><circle r="4" cx="439" cy="225" opacity="0.61"></circle><circle r="4" cx="559" cy="315" opacity="0.61"></circle><circle r="4" cx="569" cy="466" opacity="0.61"></circle><circle r="4" cx="461" cy="572" opacity="0.61"></circle><circle r="4" cx="309" cy="559" opacity="0.62"></circle><circle r="4" cx="219" cy="435" opacity="0.62"></circle><circle r="4" cx="255" cy="285" opacity="0.62"></circle><circle r="4" cx="392" cy="215" opacity="0.62"></circle><circle r="4" cx="536" cy="273" opacity="0.63"></circle><circle r="4" cx="586" cy="420" opacity="0.63"></circle><circle r="4" cx="507" cy="555" opacity="0.63"></circle><circle r="4" cx="352" cy="583" opacity="0.63"></circle><circle r="4" cx="229" cy="483" opacity="0.64"></circle><circle r="4" cx="225" cy="325" opacity="0.64"></circle><circle r="4" cx="343" cy="217" opacity="0.64"></circle><circle r="4" cx="501" cy="236" opacity="0.64"></circle><circle r="4" cx="591" cy="370" opacity="0.65"></circle><circle r="4.5" cx="548" cy="526" opacity="0.65"></circle><circle r="4.5" cx="401" cy="595" opacity="0.65"></circle><circle r="4.5" cx="252" cy="529" opacity="0.65"></circle><circle r="4.5" cx="205" cy="372" opacity="0.66"></circle><circle r="4.5" cx="294" cy="233" opacity="0.66"></circle><circle r="4.5" cx="457" cy="210" opacity="0.66"></circle><circle r="4.5" cx="582" cy="319" opacity="0.66"></circle><circle r="4.5" cx="581" cy="486" opacity="0.67"></circle><circle r="4.5" cx="454" cy="594" opacity="0.67"></circle><circle r="4.5" cx="288" cy="568" opacity="0.67"></circle><circle r="4.5" cx="199" cy="424" opacity="0.67"></circle><circle r="4.5" cx="250" cy="263" opacity="0.68"></circle><circle r="4.5" cx="406" cy="196" opacity="0.68"></circle><circle r="4.5" cx="559" cy="271" opacity="0.68"></circle><circle r="4.5" cx="603" cy="437" opacity="0.68"></circle><circle r="4.5" cx="505" cy="578" opacity="0.69"></circle><circle r="4.5" cx="333" cy="597" opacity="0.69"></circle><circle r="4.5" cx="206" cy="478" opacity="0.69"></circle><circle r="4.5" cx="214" cy="304" opacity="0.69"></circle><circle r="4.5" cx="351" cy="195" opacity="0.70"></circle><circle r="4.5" cx="524" cy="229" opacity="0.70"></circle><circle r="4.5" cx="611" cy="382" opacity="0.70"></circle><circle r="4.5" cx="552" cy="549" opacity="0.70"></circle><circle r="4.5" cx="386" cy="614" opacity="0.70"></circle><circle r="4.5" cx="229" cy="529" opacity="0.71"></circle><circle r="4.5" cx="189" cy="354" opacity="0.71"></circle><circle r="4.5" cx="297" cy="210" opacity="0.71"></circle><circle r="4.5" cx="477" cy="197" opacity="0.71"></circle><circle r="4.5" cx="605" cy="326" opacity="0.72"></circle><circle r="4.5" cx="591" cy="507" opacity="0.72"></circle><circle r="4.5" cx="444" cy="616" opacity="0.72"></circle><circle r="4.5" cx="264" cy="574" opacity="0.72"></circle><circle r="4.5" cx="179" cy="411" opacity="0.73"></circle><circle r="4.5" cx="247" cy="239" opacity="0.73"></circle><circle r="4.5" cx="422" cy="178" opacity="0.73"></circle><circle r="4.5" cx="584" cy="271" opacity="0.73"></circle><circle r="4.5" cx="618" cy="455" opacity="0.74"></circle><circle r="4.5" cx="501" cy="602" opacity="0.74"></circle><circle r="4.5" cx="312" cy="609" opacity="0.74"></circle><circle r="4.5" cx="183" cy="470" opacity="0.74"></circle><circle r="5" cx="205" cy="281" opacity="0.75"></circle><circle r="5" cx="363" cy="174" opacity="0.75"></circle><circle r="5" cx="548" cy="223" opacity="0.75"></circle><circle r="5" cx="631" cy="397" opacity="0.75"></circle><circle r="5" cx="554" cy="574" opacity="0.76"></circle><circle r="5" cx="369" cy="631" opacity="0.76"></circle><circle r="5" cx="204" cy="527" opacity="0.76"></circle><circle r="5" cx="175" cy="334" opacity="0.76"></circle><circle r="5" cx="302" cy="186" opacity="0.77"></circle><circle r="5" cx="499" cy="185" opacity="0.77"></circle><circle r="5" cx="628" cy="335" opacity="0.77"></circle><circle r="5" cx="599" cy="531" opacity="0.77"></circle><circle r="5" cx="431" cy="637" opacity="0.78"></circle><circle r="5" cx="240" cy="578" opacity="0.78"></circle><circle r="5" cx="159" cy="395" opacity="0.78"></circle><circle r="5" cx="246" cy="214" opacity="0.78"></circle><circle r="5" cx="441" cy="161" opacity="0.79"></circle><circle r="5" cx="608" cy="275" opacity="0.79"></circle><circle r="5" cx="632" cy="477" opacity="0.79"></circle><circle r="5" cx="494" cy="626" opacity="0.79"></circle><circle r="5" cx="289" cy="619" opacity="0.80"></circle><circle r="5" cx="161" cy="459" opacity="0.80"></circle><circle r="5" cx="198" cy="257" opacity="0.80"></circle><circle r="5" cx="377" cy="153" opacity="0.80"></circle><circle r="5" cx="573" cy="220" opacity="0.81"></circle><circle r="5" cx="650" cy="414" opacity="0.81"></circle><circle r="5" cx="553" cy="599" opacity="0.81"></circle><circle r="5" cx="349" cy="647" opacity="0.81"></circle><circle r="5" cx="179" cy="522" opacity="0.82"></circle><circle r="5" cx="162" cy="312" opacity="0.82"></circle><circle r="5" cx="311" cy="162" opacity="0.82"></circle><circle r="5" cx="523" cy="176" opacity="0.82"></circle><circle r="5" cx="651" cy="347" opacity="0.83"></circle><circle r="5" cx="604" cy="556" opacity="0.83"></circle><circle r="5" cx="415" cy="657" opacity="0.83"></circle><circle r="5" cx="214" cy="580" opacity="0.83"></circle><circle r="5" cx="142" cy="376" opacity="0.84"></circle><circle r="5" cx="249" cy="188" opacity="0.84"></circle><circle r="5" cx="462" cy="146" opacity="0.84"></circle><circle r="5" cx="634" cy="281" opacity="0.84"></circle><circle r="5" cx="643" cy="500" opacity="0.85"></circle><circle r="5.5" cx="483" cy="650" opacity="0.85"></circle><circle r="5.5" cx="264" cy="627" opacity="0.85"></circle><circle r="5.5" cx="138" cy="446" opacity="0.85"></circle><circle r="5.5" cx="194" cy="231" opacity="0.86"></circle><circle r="5.5" cx="394" cy="133" opacity="0.86"></circle><circle r="5.5" cx="599" cy="220" opacity="0.86"></circle><circle r="5.5" cx="667" cy="434" opacity="0.86"></circle><circle r="5.5" cx="549" cy="625" opacity="0.87"></circle><circle r="5.5" cx="326" cy="661" opacity="0.87"></circle><circle r="5.5" cx="154" cy="515" opacity="0.87"></circle><circle r="5.5" cx="152" cy="288" opacity="0.87"></circle><circle r="5.5" cx="323" cy="138" opacity="0.88"></circle><circle r="5.5" cx="549" cy="170" opacity="0.88"></circle><circle r="5.5" cx="672" cy="362" opacity="0.88"></circle><circle r="5.5" cx="607" cy="583" opacity="0.88"></circle><circle r="5.5" cx="397" cy="677" opacity="0.89"></circle><circle r="5.5" cx="187" cy="579" opacity="0.89"></circle><circle r="5.5" cx="125" cy="355" opacity="0.89"></circle><circle r="5.5" cx="254" cy="162" opacity="0.89"></circle><circle r="5.5" cx="486" cy="133" opacity="0.90"></circle><circle r="5.5" cx="659" cy="291" opacity="0.90"></circle><circle r="5.5" cx="653" cy="525" opacity="0.90"></circle><circle r="5.5" cx="470" cy="674" opacity="0.90"></circle><circle r="5.5" cx="238" cy="633" opacity="0.91"></circle><circle r="5.5" cx="117" cy="429" opacity="0.91"></circle><circle r="5.5" cx="193" cy="204" opacity="0.91"></circle><circle r="5.5" cx="414" cy="114" opacity="0.91"></circle><circle r="5.5" cx="626" cy="223" opacity="0.92"></circle><circle r="5.5" cx="682" cy="456" opacity="0.92"></circle><circle r="5.5" cx="542" cy="651" opacity="0.92"></circle><circle r="5.5" cx="302" cy="673" opacity="0.92"></circle><circle r="5.5" cx="129" cy="504" opacity="0.93"></circle><circle r="5.5" cx="144" cy="262" opacity="0.93"></circle><circle r="5.5" cx="337" cy="115" opacity="0.93"></circle><circle r="5.5" cx="576" cy="166" opacity="0.93"></circle><circle r="5.5" cx="693" cy="380" opacity="0.94"></circle><circle r="5.5" cx="607" cy="610" opacity="0.94"></circle><circle r="5.5" cx="376" cy="695" opacity="0.94"></circle><circle r="5.5" cx="160" cy="574" opacity="0.94"></circle><circle r="5.5" cx="111" cy="332" opacity="0.95"></circle><circle r="5.5" cx="263" cy="135" opacity="0.95"></circle><circle r="6" cx="511" cy="122" opacity="0.95"></circle><circle r="6" cx="684" cy="303" opacity="0.95"></circle><circle r="6" cx="660" cy="552" opacity="0.96"></circle><circle r="6" cx="454" cy="697" opacity="0.96"></circle><circle r="6" cx="210" cy="635" opacity="0.96"></circle><circle r="6" cx="97" cy="409" opacity="0.96"></circle><circle r="6" cx="194" cy="176" opacity="0.97"></circle><circle r="6" cx="436" cy="97" opacity="0.97"></circle><circle r="6" cx="654" cy="229" opacity="0.97"></circle><circle r="6" cx="696" cy="481" opacity="0.97"></circle><circle r="6" cx="532" cy="678" opacity="0.98"></circle><circle r="6" cx="275" cy="682" opacity="0.98"></circle><circle r="6" cx="104" cy="490" opacity="0.98"></circle><circle r="6" cx="138" cy="234" opacity="0.98"></circle><circle r="6" cx="355" cy="92" opacity="0.99"></circle><circle r="6" cx="604" cy="164" opacity="0.99"></circle><circle r="6" cx="713" cy="401" opacity="0.99"></circle><circle r="6" cx="604" cy="639" opacity="0.99"></circle><circle r="6" cx="352" cy="711" opacity="1.00"></circle><circle r="6" cx="132" cy="567" opacity="1.00"></circle></g></svg>