<?xml version="1.0" encoding="UTF-8"?>
<!-- Uploaded to: SVG Find, www.svgrepo.com, Generator: SVG Find Mixer Tools -->
<svg width="800px" height="800px" version="1.1" viewBox="144 144 512 512" xmlns="http://www.w3.org/2000/svg">
 <defs>
  <clipPath id="a">
   <path d="m148.09 148.09h503.81v503.81h-503.81z"/>
  </clipPath>
 </defs>
 <path d="m438.75 322.49c0 21.406-17.352 38.754-38.754 38.754-21.406 0-38.758-17.348-38.758-38.754 0-21.402 17.352-38.754 38.758-38.754 21.402 0 38.754 17.352 38.754 38.754"/>
 <g clip-path="url(#a)">
  <path d="m400 148.09c-66.812 0-130.88 26.539-178.12 73.781s-73.781 111.31-73.781 178.12c0 66.809 26.539 130.88 73.781 178.12 47.242 47.242 111.31 73.781 178.12 73.781 66.809 0 130.88-26.539 178.12-73.781 47.242-47.242 73.781-111.31 73.781-178.12-0.074219-66.789-26.641-130.82-73.863-178.04-47.227-47.227-111.25-73.789-178.04-73.867zm0 96.887c20.555 0 40.27 8.1641 54.805 22.703 14.535 14.535 22.703 34.25 22.703 54.805 0 20.559-8.168 40.273-22.703 54.809-14.535 14.535-34.25 22.703-54.805 22.703-20.559 0-40.273-8.168-54.809-22.703s-22.703-34.25-22.703-54.809c0-20.555 8.168-40.27 22.703-54.805 14.535-14.539 34.25-22.703 54.809-22.703zm135.64 290.66c-5.1406 0-10.07-2.043-13.703-5.6758-3.6328-3.6328-5.6758-8.5625-5.6758-13.703 0-15.418-6.125-30.203-17.027-41.105s-25.688-17.027-41.105-17.027h-116.26c-15.418 0-30.203 6.125-41.105 17.027-10.902 10.902-17.027 25.688-17.027 41.105 0 6.9219-3.6914 13.32-9.6875 16.781-5.9961 3.4609-13.383 3.4609-19.379 0-5.9961-3.4609-9.6875-9.8594-9.6875-16.781 0.03125-25.688 10.246-50.312 28.41-68.473 18.164-18.164 42.789-28.383 68.477-28.414h116.27-0.003906c25.688 0.03125 50.312 10.25 68.477 28.414 18.164 18.16 28.379 42.785 28.41 68.473 0 5.1406-2.0391 10.07-5.6758 13.703-3.6328 3.6328-8.5625 5.6758-13.699 5.6758z"/>
 </g>
</svg>